HIERARCHY
ROOT root
{
	OFFSET 0.000000 0.000000 0.000000
	CHANNELS 6 Xposition Yposition Zposition Zrotation Yrotation Xrotation
	JOINT lhip
	{
		OFFSET 0.058581 -0.082280 -0.017664
		CHANNELS 3 Zrotation Yrotation Xrotation
		JOINT lknee
		{
			OFFSET 0.043451 -0.386469 0.008037
			CHANNELS 3 Zrotation Yrotation Xrotation
			JOINT lankle
			{
				OFFSET -0.014790 -0.426874 -0.037428
				CHANNELS 3 Zrotation Yrotation Xrotation
				JOINT ltoe
				{
					OFFSET 0.041054 -0.060286 0.122042
					CHANNELS 3 Zrotation Yrotation Xrotation
					End Site
					{
						OFFSET 0.000000 0.000000 0.000000
					}
				}
			}
		}
	}
	JOINT rhip
	{
		OFFSET -0.060310 -0.090513 -0.013543
		CHANNELS 3 Zrotation Yrotation Xrotation
		JOINT rknee
		{
			OFFSET -0.043257 -0.383688 -0.004843
			CHANNELS 3 Zrotation Yrotation Xrotation
			JOINT rankle
			{
				OFFSET 0.019056 -0.420046 -0.034562
				CHANNELS 3 Zrotation Yrotation Xrotation
				JOINT rtoe
				{
					OFFSET -0.034840 -0.062106 0.130323
					CHANNELS 3 Zrotation Yrotation Xrotation
					End Site
					{
						OFFSET 0.000000 0.000000 0.000000
					}
				}
			}
		}
	}
	JOINT lowerback
	{
		OFFSET 0.004439 0.124404 -0.038385
		CHANNELS 3 Zrotation Yrotation Xrotation
		JOINT upperback
		{
			OFFSET 0.004488 0.137956 0.026820
			CHANNELS 3 Zrotation Yrotation Xrotation
			JOINT chest
			{
				OFFSET -0.002265 0.056032 0.002855
				CHANNELS 3 Zrotation Yrotation Xrotation
				JOINT lowerneck
				{
					OFFSET -0.013390 0.211636 -0.033468
					CHANNELS 3 Zrotation Yrotation Xrotation
					JOINT upperneck
					{
						OFFSET 0.010113 0.088937 0.050410
						CHANNELS 3 Zrotation Yrotation Xrotation
						End Site
						{
							OFFSET 0.000000 0.000000 0.000000
						}
					}
				}
				JOINT lclavicle
				{
					OFFSET 0.071702 0.114000 -0.018898
					CHANNELS 3 Zrotation Yrotation Xrotation
					JOINT lshoulder
					{
						OFFSET 0.122921 0.045205 -0.019046
						CHANNELS 3 Zrotation Yrotation Xrotation
						JOINT lelbow
						{
							OFFSET 0.255332 -0.015649 -0.022946
							CHANNELS 3 Zrotation Yrotation Xrotation
							JOINT lwrist
							{
								OFFSET 0.265709 0.012698 -0.007375
								CHANNELS 3 Zrotation Yrotation Xrotation
								End Site
								{
									OFFSET 0.000000 0.000000 0.000000
								}
							}
						}
					}
				}
				JOINT rclavicle
				{
					OFFSET -0.082954 0.112472 -0.023707
					CHANNELS 3 Zrotation Yrotation Xrotation
					JOINT rshoulder
					{
						OFFSET -0.113228 0.046853 -0.008472
						CHANNELS 3 Zrotation Yrotation Xrotation
						JOINT relbow
						{
							OFFSET -0.260127 -0.014369 -0.031269
							CHANNELS 3 Zrotation Yrotation Xrotation
							JOINT rwrist
							{
								OFFSET -0.269108 0.006794 -0.006027
								CHANNELS 3 Zrotation Yrotation Xrotation
								End Site
								{
									OFFSET 0.000000 0.000000 0.000000
								}
							}
						}
					}
				}
			}
		}
	}
}
MOTION
Frames: 17
Frame Time: 0.033333
0.737959 1.047570 0.967493 -98.894364 2.225674 79.275391 11.329000 -0.719204 -12.552533 -5.548639 -7.068502 15.016845 -5.434606 7.577201 0.720140 0.000000 -0.000000 0.000000 -8.769511 1.123557 23.716540 6.639304 15.145061 48.531222 4.280844 2.032393 -35.267555 0.000000 -0.000000 0.000000 2.584566 3.879134 2.103544 6.096518 -6.064227 12.759617 -0.760178 -0.637076 5.075309 4.518127 4.521079 14.525285 -2.096649 -1.324781 12.944137 -25.450900 11.816719 0.910106 -52.655772 6.224667 0.827334 5.561143 -32.550839 2.498541 -3.258427 0.485571 -11.993176 26.392450 -7.385904 -2.313982 45.724439 1.629779 6.263499 -14.781170 53.506458 -7.773007 1.405761 1.349919 -7.566189 
0.717991 1.034964 0.957381 -97.377056 2.774783 80.993514 10.467073 -0.904168 -15.969508 -6.720118 -7.080262 20.259181 -2.802985 7.192340 -5.706513 0.000000 -0.000000 0.000000 -8.920671 1.473795 23.029613 7.407386 15.748756 49.882423 5.376763 2.944162 -32.967811 0.000000 -0.000000 0.000000 1.443960 4.376136 3.633410 6.595715 -6.753986 12.284079 -0.255405 -1.027575 5.066144 4.983000 3.313887 12.585568 -1.866208 -2.235456 13.150239 -25.603560 10.379637 0.382459 -52.844974 5.004129 1.054447 5.984292 -30.202100 2.588996 -3.609721 0.555514 -10.614392 26.626716 -7.245314 -4.302820 46.293005 1.387705 7.024825 -15.608488 53.609472 -7.835742 5.372414 1.715459 -7.754454 
0.699362 1.022749 0.952617 -96.076925 2.702624 82.759274 9.424595 -2.308247 -18.780487 -7.518873 -5.958179 24.035995 -0.670435 7.221447 -9.322679 0.000000 -0.000000 0.000000 -9.284500 1.923170 22.266477 7.482633 16.384591 50.375151 7.655751 4.225610 -28.803526 0.000000 -0.000000 0.000000 0.433824 5.355582 5.543629 6.598558 -6.789208 10.652835 -0.111364 -1.519598 5.022011 5.013058 1.945942 13.812907 -0.486203 -2.410833 11.669498 -25.179064 9.014763 2.034947 -53.052401 3.686634 1.183270 6.796780 -31.165020 3.093831 -2.806124 0.780250 -10.419631 26.036779 -6.654736 -2.651053 48.357510 1.327805 7.246830 -18.173314 52.695439 -10.400013 2.079171 0.953890 -8.700279 
0.682286 1.010217 0.952343 -96.041605 2.672065 84.660750 8.913887 -3.346585 -20.459402 -7.946972 -4.674367 25.282414 0.441772 7.821995 -10.854593 0.000000 -0.000000 0.000000 -10.127021 2.328443 20.954273 7.055580 16.989090 49.788206 8.404229 5.088224 -24.402820 0.000000 -0.000000 0.000000 0.263691 6.504158 5.985213 6.303472 -6.357553 10.871111 -0.384111 -1.198211 4.926010 5.037998 0.889947 14.572107 0.955901 -3.638208 10.076141 -25.139723 7.533756 2.560049 -52.472133 2.269115 2.380223 6.590614 -33.146066 2.369623 0.651289 1.073675 -11.297013 25.650353 -6.058825 -1.582439 49.825922 0.929241 8.663827 -17.947244 52.222359 -11.385595 -9.286633 -4.162241 -10.545020 
0.666680 0.998308 0.955571 -96.418678 2.820954 86.533992 8.583816 -3.691320 -20.800640 -8.079282 -3.691111 24.251346 1.199921 7.828505 -11.712340 0.000000 -0.000000 0.000000 -10.885848 2.414339 19.085022 6.642100 17.329918 49.371569 9.336173 5.346385 -20.036575 0.000000 -0.000000 0.000000 -0.069313 7.219535 6.077689 6.210693 -5.490444 11.105690 -0.252194 -0.721601 4.919087 4.675614 -0.327294 14.193318 1.604068 -3.977979 10.122151 -25.176546 7.114475 1.992128 -52.595032 1.145576 3.300385 6.859533 -35.253695 1.421012 0.770552 -0.583869 -11.243570 25.309229 -5.712305 -1.612372 49.789658 0.419616 9.118312 -18.112381 51.193850 -11.016989 -3.177968 -4.340182 -8.804822 
0.652881 0.987258 0.960993 -96.860476 3.040936 88.331170 8.143752 -3.678215 -20.762560 -8.024473 -3.565183 22.488118 2.046471 7.839965 -11.874410 0.000000 -0.000000 0.000000 -11.754863 2.126036 16.872711 6.077721 16.975612 49.312081 10.667244 5.406672 -14.382633 0.000000 -0.000000 0.000000 -0.372215 7.530727 6.760186 5.974334 -4.418760 9.844308 0.128215 -0.454325 5.421872 4.100596 -1.670184 13.935440 2.423296 -3.526025 10.190702 -24.919776 7.535524 1.607874 -53.458327 0.359321 3.714341 7.081376 -37.522019 0.280490 -0.092298 -0.683602 -11.766155 24.880236 -5.503223 -1.658494 49.617882 0.326123 9.134786 -17.567024 50.610764 -10.215019 5.075035 -2.347526 -6.461997 
0.640075 0.976885 0.967115 -97.258931 3.149900 89.728516 7.433805 -4.042635 -20.267902 -7.487638 -3.274167 20.635022 2.461404 7.835460 -11.839392 0.000000 -0.000000 0.000000 -12.641648 1.536898 14.360336 5.285801 16.181580 50.474147 12.844893 5.916010 -10.711430 0.000000 -0.000000 0.000000 -0.652567 7.537155 7.444324 5.684233 -3.860964 9.489323 0.275578 -0.142585 5.176809 4.169600 -2.113072 13.819929 2.569057 -3.618547 10.074767 -24.379826 7.607563 1.956231 -54.606840 -0.449862 3.761070 7.408952 -38.760978 -0.398513 -0.966858 -1.170685 -12.501335 24.396202 -5.343882 -1.291932 50.119352 0.831340 8.904051 -17.020154 50.022252 -9.501559 7.143663 -0.284790 -4.799662 
0.627640 0.967342 0.972376 -97.317132 3.600592 90.825071 6.754252 -3.890439 -19.582275 -6.786743 -3.685985 18.792567 3.038858 7.605329 -11.430218 0.000000 -0.000000 0.000000 -12.734235 -0.181500 11.493921 4.222933 16.100059 52.778508 13.521736 4.747854 -4.573724 0.000000 -0.000000 0.000000 -0.602703 7.145928 7.593633 5.494187 -3.577442 10.103287 0.435275 -0.142031 4.638359 3.259422 -2.321399 13.888831 3.040804 -2.215492 9.894434 -24.048427 6.944855 2.090578 -55.330778 -0.265685 4.360054 7.568259 -39.348754 -0.217106 -0.455091 -1.433477 -13.291624 24.232206 -4.456973 -1.126230 50.139268 0.653535 8.913030 -17.517442 50.273606 -10.791965 7.302291 1.555098 -4.220451 
0.615056 0.960952 0.976686 -96.890517 4.569695 91.431180 6.876097 -3.488038 -18.529367 -6.495444 -4.424136 17.391558 3.506641 7.278887 -11.720152 0.000000 -0.000000 0.000000 -11.326575 -0.677338 9.288936 3.128046 14.376266 55.335440 12.460445 2.978462 0.401326 0.000000 -0.000000 0.000000 -0.179495 6.578959 8.524659 5.594058 -3.525877 8.642331 0.578696 -0.509425 5.482878 2.913588 -1.977593 14.127630 3.169552 -1.637699 9.531473 -23.809427 6.876507 3.177653 -55.610260 -0.752169 3.825128 6.805200 -40.197968 2.508674 -0.747710 -1.374511 -12.994767 23.932503 -4.627431 -0.435750 50.723497 1.151965 8.727761 -17.647074 50.864875 -10.666719 5.140245 2.124750 -6.233935 
0.602923 0.951324 0.978773 -95.951869 3.596564 91.544913 4.472888 -3.870165 -17.109342 -5.933021 -5.603518 16.025109 4.713057 7.578763 -11.541290 0.000000 -0.000000 0.000000 -11.759644 -1.951452 7.612172 2.628098 14.569687 58.159736 11.463374 -0.586803 4.289423 0.000000 -0.000000 0.000000 -1.101437 5.615448 8.556036 5.313603 -3.883143 10.091935 0.588438 -0.805356 4.819313 2.227804 -3.065283 14.028289 3.665831 -0.897273 9.852189 -23.808003 6.385861 3.391488 -55.588914 -0.806208 4.742689 7.218959 -40.572680 3.223964 -1.940867 -1.205073 -12.465164 23.417843 -4.172836 -0.891397 51.848500 0.291344 9.302338 -20.336319 50.320671 -13.741181 7.892272 1.514932 -7.033195 
0.593174 0.944992 0.980356 -95.607455 3.493371 91.723711 3.678359 -4.141442 -16.007679 -5.798876 -6.216896 14.896127 5.191684 8.086378 -11.764661 0.000000 -0.000000 0.000000 -10.713845 -1.378003 4.711484 1.877417 12.441574 61.762500 9.900232 -3.408689 4.941270 0.000000 -0.000000 0.000000 -1.385098 4.876539 9.234765 5.209879 -3.731963 9.315943 0.578611 -1.180672 5.205185 1.794974 -2.706942 14.192534 3.675720 -0.252694 9.716655 -23.887429 6.017769 4.050043 -55.339038 -1.116060 4.724119 7.152465 -40.716771 3.571198 -2.063566 -1.014353 -11.857378 23.263798 -4.262333 -0.754347 52.566514 -0.103243 9.374473 -21.455129 49.889254 -14.994441 8.040274 1.322030 -7.574368 
0.582702 0.938112 0.981270 -94.719830 3.161121 91.394879 2.278669 -4.764994 -14.177187 -5.350989 -7.565639 13.578576 5.769352 8.859885 -11.882129 0.000000 -0.000000 0.000000 -9.493763 -0.633980 2.163239 1.040865 9.985170 64.991546 8.438255 -5.827148 2.077542 0.000000 -0.000000 0.000000 -1.668238 4.005053 9.706516 5.166611 -3.785255 9.158456 0.425995 -1.571077 5.677750 2.239514 -2.412096 14.121915 3.204195 -0.492473 10.039298 -23.616988 5.804180 4.758001 -55.799781 -2.108677 5.163012 8.086836 -40.396635 2.981180 -1.712740 -0.954671 -11.856433 22.971391 -4.618324 -0.841608 53.512859 -0.523262 9.609744 -22.189836 48.823295 -14.735536 8.413888 1.550366 -7.894782 
0.574157 0.932888 0.983125 -94.297076 3.149858 91.013843 1.598170 -4.920082 -12.463758 -5.147923 -8.495744 12.365757 5.705720 9.234805 -12.078800 0.000000 -0.000000 0.000000 -7.754011 0.140866 -0.872219 0.237982 7.906855 67.139055 8.018563 -7.002592 -0.918486 0.000000 -0.000000 0.000000 -1.569989 3.183970 10.506447 4.983558 -3.559380 8.889970 0.368019 -1.847765 5.717052 2.096188 -2.279786 14.199249 3.249289 -0.403189 9.764217 -23.811678 5.812850 4.447499 -55.941895 -2.396387 5.268339 8.458395 -40.049294 1.967792 -1.753524 -0.562229 -12.028717 22.955309 -5.018374 -1.213666 53.699502 -1.373644 9.782763 -21.358878 47.933741 -13.871470 7.734790 1.240367 -6.893714 
0.565448 0.930337 0.985497 -93.609782 3.744736 89.957651 1.954922 -4.527430 -9.857883 -5.309839 -9.648456 10.842009 5.058861 9.141315 -12.356953 0.000000 -0.000000 0.000000 -5.238578 1.879553 -2.940626 -0.514655 4.459013 67.830616 7.828072 -6.969011 -4.675132 0.000000 -0.000000 0.000000 -1.252774 2.018808 11.771923 5.027882 -3.402607 8.764925 0.329451 -1.888887 5.575493 2.755953 -1.525942 14.825344 2.731378 -0.999791 9.651420 -23.921122 5.973978 4.325079 -56.139426 -2.804549 5.338063 9.028124 -39.708390 0.808990 -2.030231 -0.879995 -11.771893 23.083562 -5.188501 -0.900938 53.860645 -1.844856 9.521004 -20.218542 46.393422 -12.514474 7.013690 1.340603 -6.152743 
0.559073 0.925469 0.987688 -93.797565 3.202886 89.577359 0.576250 -4.680174 -7.988764 -4.618857 -10.546572 9.113896 4.934574 10.148090 -12.302990 0.000000 -0.000000 0.000000 -4.314419 3.312182 -6.185444 -0.385959 2.636974 67.113820 7.016739 -7.476863 -7.701410 0.000000 -0.000000 0.000000 -1.530330 1.397010 12.114351 4.624976 -3.109271 8.524203 0.187227 -2.173989 6.073213 2.975340 -0.629087 14.739299 2.450498 -1.069519 9.646771 -24.259944 6.302192 4.035063 -56.171120 -3.313819 5.618622 9.257380 -39.659347 -0.240072 -1.345840 -0.266204 -11.121351 22.895008 -5.693355 -1.055506 54.319234 -1.871336 9.875515 -18.685528 44.436903 -10.969537 5.633028 1.372053 -5.803022 
0.552878 0.922629 0.989911 -93.680932 3.087552 89.126332 0.094923 -4.385430 -6.048899 -4.310589 -11.272913 7.397879 4.506045 10.215611 -12.205541 0.000000 -0.000000 0.000000 -2.922329 4.262611 -8.773094 -0.537185 0.987351 63.959919 7.029044 -7.800551 -9.818841 0.000000 -0.000000 0.000000 -1.623423 0.729361 13.082172 4.316706 -2.801341 7.462922 0.325566 -2.538990 6.031462 3.002452 -0.632938 15.212452 2.454650 -0.962650 9.718003 -24.399371 6.698606 3.943938 -56.293422 -3.299218 5.815438 9.096190 -39.494260 -0.315514 -1.702553 -0.757930 -10.732081 22.647095 -6.263200 -0.842607 54.709595 -2.622190 9.780136 -17.501192 42.769468 -9.879094 4.887173 1.157991 -5.180848 
0.549307 0.920446 0.991119 -92.190742 3.560723 89.249208 0.563195 -4.721623 -5.570407 -4.437886 -12.008846 6.655419 4.008102 9.697011 -12.237832 0.000000 -0.000000 0.000000 -1.316744 5.118574 -11.229860 -0.513300 -1.975312 58.730242 6.711523 -8.471066 -10.981868 0.000000 -0.000000 0.000000 -1.034754 -0.745814 13.096147 4.401860 -3.016942 7.065731 0.140870 -2.954417 6.631630 3.775415 -0.483906 14.285826 2.527140 -1.663102 9.902456 -24.444340 7.173791 3.396286 -56.502271 -3.996674 6.801666 9.064320 -39.025036 0.071852 -2.607400 -0.853043 -10.159076 22.476109 -7.031476 -1.404293 55.063077 -2.873100 10.249083 -16.910384 41.141275 -9.102742 5.202897 1.096887 -5.208488 
